<mxfile host="Electron" agent="Mozilla/5.0 (X11; Linux x86_64) AppleWebKit/537.36 (KHTML, like Gecko) draw.io/24.7.8 Chrome/128.0.6613.36 Electron/32.0.1 Safari/537.36" version="24.7.8">
  <diagram name="PÃ¡gina-1" id="zyXk4IX8HRDn9IL7Xp22">
    <mxGraphModel dx="1370" dy="843" grid="1" gridSize="10" guides="1" tooltips="1" connect="1" arrows="1" fold="1" page="1" pageScale="1" pageWidth="850" pageHeight="1100" math="0" shadow="0">
      <root>
        <mxCell id="0" />
        <mxCell id="1" parent="0" />
        <mxCell id="Ok4YfhQHZrbAoKwd6_PE-1" value="" style="ellipse;whiteSpace=wrap;html=1;aspect=fixed;gradientColor=#0055B6;gradientDirection=radial;fillColor=#FFFFFF;" parent="1" vertex="1">
          <mxGeometry x="380" y="280" width="110" height="110" as="geometry" />
        </mxCell>
        <mxCell id="Ok4YfhQHZrbAoKwd6_PE-2" value="&lt;font face=&quot;Ubuntu&quot; style=&quot;font-size: 40px;&quot;&gt;&lt;b&gt;DQS&lt;/b&gt;&lt;/font&gt;" style="text;html=1;align=center;verticalAlign=middle;whiteSpace=wrap;rounded=0;" parent="1" vertex="1">
          <mxGeometry x="395" y="310" width="80" height="50" as="geometry" />
        </mxCell>
      </root>
    </mxGraphModel>
  </diagram>
</mxfile>
